<svg xmlns="http://www.w3.org/2000/svg" xmlns:xlink="http://www.w3.org/1999/xlink" width="30" height="30" viewBox="0 0 30 30" fill="none"><g opacity="1" transform="translate(0 0)  rotate(0 15 15)"><path id="圆形 1" fill-rule="evenodd" style="fill:#216FFF" transform="translate(0 0)  rotate(0 15 15)" opacity="1" d="M15,0C6.72,0 0,6.72 0,15C0,23.28 6.72,30 15,30C23.28,30 30,23.28 30,15C30,6.72 23.28,0 15,0Z " /><path id="三角形 1" fill-rule="evenodd" style="fill:#FFFFFF" transform="translate(8.5 8.5)  rotate(90 6.5 6.5)" opacity="1" d="M2.6,9.75L10.4,9.75C10.76,9.75 11.08,9.56 11.26,9.25C11.44,8.94 11.44,8.56 11.26,8.25L7.37,1.5C7.19,1.19 6.86,0.99 6.5,0.99C6.14,0.99 5.81,1.19 5.63,1.5L1.74,8.25C1.56,8.56 1.56,8.94 1.74,9.25C1.92,9.56 2.24,9.75 2.6,9.75Z " /></g></svg>