<svg xmlns="http://www.w3.org/2000/svg" xmlns:xlink="http://www.w3.org/1999/xlink" width="30" height="30" viewBox="0 0 30 30" fill="none"><g opacity="1" transform="translate(0 0)  rotate(0 15 15)"><path id="圆形 1" fill-rule="evenodd" style="fill:#216FFF" transform="translate(0 0)  rotate(0 15 15)" opacity="1" d="M15,0C6.72,0 0,6.72 0,15C0,23.28 6.72,30 15,30C23.28,30 30,23.28 30,15C30,6.72 23.28,0 15,0Z " /><g opacity="1" transform="translate(11.5 10.5)  rotate(0 3.5 4.5)"><path id="矩形 1" fill-rule="evenodd" style="fill:#FFFFFF" transform="translate(0 0)  rotate(0 1 4.5)" opacity="1" d="M0.5,9L1.5,9C1.78,9 2,8.78 2,8.5L2,0.5C2,0.22 1.78,0 1.5,0L0.5,0C0.22,0 0,0.22 0,0.5L0,8.5C0,8.78 0.22,9 0.5,9Z " /><path id="矩形 1" fill-rule="evenodd" style="fill:#FFFFFF" transform="translate(5 0)  rotate(0 1 4.5)" opacity="1" d="M0.5,9L1.5,9C1.78,9 2,8.78 2,8.5L2,0.5C2,0.22 1.78,0 1.5,0L0.5,0C0.22,0 0,0.22 0,0.5L0,8.5C0,8.78 0.22,9 0.5,9Z " /></g></g></svg>