<svg xmlns="http://www.w3.org/2000/svg" xmlns:xlink="http://www.w3.org/1999/xlink" width="26.9999990000033" height="26.9999990000033" viewBox="0 0 26.9999990000033 26.9999990000033" fill="none"><g opacity="1" transform="translate(0 0)  rotate(0 13.499999500001824 13.499999500001824)"><path id="圆形 1 (轮廓)" fill-rule="evenodd" style="fill:#333333" transform="translate(0 0)  rotate(0 13.499999500001824 13.499999500001824)" opacity="1" d="M16.22 0.27C15.33 0.09 14.42 0 13.5 0C12.58 0 11.67 0.09 10.78 0.27C9.91 0.45 9.06 0.71 8.24 1.06C7.44 1.4 6.68 1.82 5.95 2.31C5.23 2.79 4.57 3.34 3.95 3.95C3.34 4.57 2.79 5.23 2.31 5.95C1.82 6.68 1.4 7.44 1.06 8.24C0.71 9.06 0.45 9.91 0.27 10.78C0.09 11.67 0 12.58 0 13.5C0 14.42 0.09 15.33 0.27 16.22C0.45 17.09 0.71 17.94 1.06 18.76C1.4 19.56 1.82 20.32 2.31 21.05C2.79 21.77 3.34 22.43 3.95 23.05C4.57 23.66 5.23 24.21 5.95 24.69C6.68 25.18 7.44 25.6 8.24 25.94C9.06 26.29 9.91 26.55 10.78 26.73C11.67 26.91 12.58 27 13.5 27C14.42 27 15.33 26.91 16.22 26.73C17.09 26.55 17.94 26.29 18.76 25.94C19.56 25.6 20.32 25.18 21.05 24.69C21.77 24.21 22.43 23.66 23.05 23.05C23.66 22.43 24.21 21.77 24.69 21.05C25.18 20.32 25.6 19.56 25.94 18.76C26.29 17.94 26.55 17.09 26.73 16.22C26.91 15.33 27 14.42 27 13.5C27 12.58 26.91 11.67 26.73 10.78C26.55 9.91 26.29 9.06 25.94 8.24C25.6 7.44 25.18 6.68 24.69 5.95C24.21 5.23 23.66 4.57 23.05 3.95C22.43 3.34 21.77 2.79 21.05 2.31C20.32 1.82 19.56 1.4 18.76 1.06C17.94 0.71 17.09 0.45 16.22 0.27ZM20.49 3.13C21.15 3.58 21.77 4.09 22.34 4.66C22.91 5.23 23.42 5.85 23.87 6.51C24.32 7.18 24.7 7.89 25.02 8.63C25.34 9.39 25.58 10.17 25.75 10.98C25.92 11.81 26 12.65 26 13.5C26 14.35 25.92 15.19 25.75 16.02C25.58 16.83 25.34 17.61 25.02 18.37C24.7 19.11 24.32 19.82 23.87 20.49C23.42 21.15 22.91 21.77 22.34 22.34C21.77 22.91 21.15 23.42 20.49 23.87C19.82 24.32 19.11 24.7 18.37 25.02C17.61 25.34 16.83 25.58 16.02 25.75C15.19 25.92 14.35 26 13.5 26C12.65 26 11.81 25.92 10.98 25.75C10.17 25.58 9.39 25.34 8.63 25.02C7.89 24.7 7.18 24.32 6.51 23.87C5.85 23.42 5.23 22.91 4.66 22.34C4.09 21.77 3.58 21.15 3.13 20.49C2.68 19.82 2.3 19.11 1.98 18.37C1.66 17.61 1.42 16.83 1.25 16.02C1.08 15.19 1 14.35 1 13.5C1 12.65 1.08 11.81 1.25 10.98C1.42 10.17 1.66 9.39 1.98 8.63C2.3 7.89 2.68 7.18 3.13 6.51C3.58 5.85 4.09 5.23 4.66 4.66C5.23 4.09 5.85 3.58 6.51 3.13C7.18 2.68 7.89 2.3 8.63 1.98C9.39 1.66 10.17 1.42 10.98 1.25C11.81 1.08 12.65 1 13.5 1C14.35 1 15.19 1.08 16.02 1.25C16.83 1.42 17.61 1.66 18.37 1.98C19.11 2.3 19.82 2.68 20.49 3.13Z" /><path id="并集" fill-rule="evenodd" style="fill:#333333" transform="translate(7.317722751071415 9.34458203451868)  rotate(0 6.182276248931885 4.155416965484619)" opacity="1" d="M0 7.31042L0 1.00042C0 0.640417 0.2 0.300417 0.51 0.120417C0.83 -0.0495833 1.22 -0.0395833 1.53 0.150417L5.28455 2.48593L5.28455 1.00042C5.28455 0.640417 5.48455 0.300417 5.79455 0.120417C6.11455 -0.0495833 6.50455 -0.0395833 6.81455 0.150417L11.8946 3.31042C12.1846 3.49042 12.3646 3.81042 12.3646 4.16042C12.3646 4.50042 12.1846 4.82042 11.8946 5.00042L6.81455 8.16042C6.50455 8.35042 6.11455 8.36042 5.79455 8.19042C5.48455 8.01042 5.28455 7.67042 5.28455 7.31042L5.28455 5.82491L1.53 8.16042C1.22 8.35042 0.83 8.36042 0.51 8.19042C0.2 8.01042 0 7.67042 0 7.31042Z " /></g></svg>