<svg xmlns="http://www.w3.org/2000/svg" xmlns:xlink="http://www.w3.org/1999/xlink" width="26.9999990000033" height="26.9999990000033" viewBox="0 0 26.9999990000033 26.9999990000033" fill="none"><g opacity="1" transform="translate(0 0)  rotate(0 13.499999500001824 13.499999500001824)"><path id="圆形 1 (轮廓)" fill-rule="evenodd" style="fill:#333333" transform="translate(0 0)  rotate(0 13.499999500001824 13.499999500001824)" opacity="1" d="M0.27 16.22C0.09 15.33 0 14.42 0 13.5C0 12.58 0.09 11.67 0.27 10.78C0.45 9.91 0.71 9.06 1.06 8.24C1.4 7.44 1.82 6.68 2.31 5.95C2.79 5.23 3.34 4.57 3.95 3.95C4.57 3.34 5.23 2.79 5.95 2.31C6.68 1.82 7.44 1.4 8.24 1.06C9.06 0.71 9.91 0.45 10.78 0.27C11.67 0.09 12.58 0 13.5 0C14.42 0 15.33 0.09 16.22 0.27C17.09 0.45 17.94 0.71 18.76 1.06C19.56 1.4 20.32 1.82 21.05 2.31C21.77 2.79 22.43 3.34 23.05 3.95C23.66 4.57 24.21 5.23 24.69 5.95C25.18 6.68 25.6 7.44 25.94 8.24C26.29 9.06 26.55 9.91 26.73 10.78C26.91 11.67 27 12.58 27 13.5C27 14.42 26.91 15.33 26.73 16.22C26.55 17.09 26.29 17.94 25.94 18.76C25.6 19.56 25.18 20.32 24.69 21.05C24.21 21.77 23.66 22.43 23.05 23.05C22.43 23.66 21.77 24.21 21.05 24.69C20.32 25.18 19.56 25.6 18.76 25.94C17.94 26.29 17.09 26.55 16.22 26.73C15.33 26.91 14.42 27 13.5 27C12.58 27 11.67 26.91 10.78 26.73C9.91 26.55 9.06 26.29 8.24 25.94C7.44 25.6 6.68 25.18 5.95 24.69C5.23 24.21 4.57 23.66 3.95 23.05C3.34 22.43 2.79 21.77 2.31 21.05C1.82 20.32 1.4 19.56 1.06 18.76C0.71 17.94 0.45 17.09 0.27 16.22ZM3.13 20.49C2.68 19.82 2.3 19.11 1.98 18.37C1.66 17.61 1.42 16.83 1.25 16.02C1.08 15.19 1 14.35 1 13.5C1 12.65 1.08 11.81 1.25 10.98C1.42 10.17 1.66 9.39 1.98 8.63C2.3 7.89 2.68 7.18 3.13 6.51C3.58 5.85 4.09 5.23 4.66 4.66C5.23 4.09 5.85 3.58 6.51 3.13C7.18 2.68 7.89 2.3 8.63 1.98C9.39 1.66 10.17 1.42 10.98 1.25C11.81 1.08 12.65 1 13.5 1C14.35 1 15.19 1.08 16.02 1.25C16.83 1.42 17.61 1.66 18.37 1.98C19.11 2.3 19.82 2.68 20.49 3.13C21.15 3.58 21.77 4.09 22.34 4.66C22.91 5.23 23.42 5.85 23.87 6.51C24.32 7.18 24.7 7.89 25.02 8.63C25.34 9.39 25.58 10.17 25.75 10.98C25.92 11.81 26 12.65 26 13.5C26 14.35 25.92 15.19 25.75 16.02C25.58 16.83 25.34 17.61 25.02 18.37C24.7 19.11 24.32 19.82 23.87 20.49C23.42 21.15 22.91 21.77 22.34 22.34C21.77 22.91 21.15 23.42 20.49 23.87C19.82 24.32 19.11 24.7 18.37 25.02C17.61 25.34 16.83 25.58 16.02 25.75C15.19 25.92 14.35 26 13.5 26C12.65 26 11.81 25.92 10.98 25.75C10.17 25.58 9.39 25.34 8.63 25.02C7.89 24.7 7.18 24.32 6.51 23.87C5.85 23.42 5.23 22.91 4.66 22.34C4.09 21.77 3.58 21.15 3.13 20.49Z" /><path id="并集" fill-rule="evenodd" style="fill:#333333" transform="translate(6.817723751068115 8.84458303451538)  rotate(0 6.182276248931885 4.155416965484619)" opacity="1" d="M7.07308 5.81882L7.07308 7.31055C7.07308 7.67055 6.87309 8.00055 6.56308 8.18055C6.24308 8.35055 5.86308 8.35055 5.55308 8.16055L0.473084 5.00055C0.183084 4.82055 0.00308514 4.50055 0.00308514 4.16055C0.00308514 3.81055 0.183084 3.49055 0.473084 3.31055L5.55308 0.150553C5.86308 -0.0394471 6.24308 -0.0394471 6.56308 0.130553C6.87309 0.310553 7.07308 0.640553 7.07308 1.00055L7.07308 2.49228L10.8376 0.150553C11.1476 -0.0394471 11.5276 -0.0394471 11.8476 0.130553C12.1576 0.310553 12.3576 0.640553 12.3576 1.00055L12.3576 7.31055C12.3576 7.67055 12.1576 8.00055 11.8476 8.18055C11.5276 8.35055 11.1476 8.35055 10.8376 8.16055L7.07308 5.81882Z " /></g></svg>